<svg xmlns="http://www.w3.org/2000/svg" xmlns:xlink="http://www.w3.org/1999/xlink" width="500" zoomAndPan="magnify" viewBox="0 0 375 374.999991" height="500" preserveAspectRatio="xMidYMid meet" version="1.0"><defs><g/><clipPath id="63a8796197"><path d="M 158 132 L 225.890625 132 L 225.890625 137 L 158 137 Z M 158 132 " clip-rule="nonzero"/></clipPath><clipPath id="d5bd85892c"><path d="M 147 142 L 225.890625 142 L 225.890625 147 L 147 147 Z M 147 142 " clip-rule="nonzero"/></clipPath><clipPath id="888ef02542"><path d="M 139 152 L 225.890625 152 L 225.890625 157 L 139 157 Z M 139 152 " clip-rule="nonzero"/></clipPath><clipPath id="dc5fdb6de2"><path d="M 126.890625 162 L 225.890625 162 L 225.890625 167 L 126.890625 167 Z M 126.890625 162 " clip-rule="nonzero"/></clipPath><clipPath id="ce01dd7ede"><path d="M 147 173 L 225.890625 173 L 225.890625 178 L 147 178 Z M 147 173 " clip-rule="nonzero"/></clipPath><clipPath id="defa5648ae"><path d="M 158 183 L 225.890625 183 L 225.890625 188 L 158 188 Z M 158 183 " clip-rule="nonzero"/></clipPath><clipPath id="a1504ac52b"><path d="M 139 193 L 225.890625 193 L 225.890625 198 L 139 198 Z M 139 193 " clip-rule="nonzero"/></clipPath></defs><rect x="-37.5" width="450" fill="#ffffff" y="-37.499999" height="449.999989" fill-opacity="1"/><rect x="-37.5" width="450" fill="#ffffff" y="-37.499999" height="449.999989" fill-opacity="1"/><path fill="#272727" d="M 179.730469 126.621094 C 180.851562 126.621094 181.757812 125.714844 181.757812 124.59375 L 181.757812 117.796875 C 181.757812 112.003906 186.480469 107.304688 192.25 107.304688 C 198.019531 107.304688 202.742188 112.027344 202.742188 117.796875 L 202.742188 124.59375 C 202.742188 125.714844 203.648438 126.621094 204.769531 126.621094 C 205.890625 126.621094 206.796875 125.714844 206.796875 124.59375 L 206.796875 117.796875 C 206.796875 109.761719 200.261719 103.25 192.25 103.25 C 184.238281 103.25 177.703125 109.785156 177.703125 117.796875 L 177.703125 124.59375 C 177.703125 125.714844 178.609375 126.621094 179.730469 126.621094 Z M 179.730469 126.621094 " fill-opacity="1" fill-rule="nonzero"/><g clip-path="url(#63a8796197)"><path fill="#cda01b" d="M 160.917969 136.5625 L 223.605469 136.5625 C 224.726562 136.5625 225.632812 135.65625 225.632812 134.535156 C 225.632812 133.414062 224.726562 132.507812 223.605469 132.507812 L 160.917969 132.507812 C 159.796875 132.507812 158.890625 133.414062 158.890625 134.535156 C 158.890625 135.65625 159.796875 136.5625 160.917969 136.5625 Z M 160.917969 136.5625 " fill-opacity="1" fill-rule="nonzero"/></g><g clip-path="url(#d5bd85892c)"><path fill="#cda01b" d="M 149.640625 146.695312 L 223.605469 146.695312 C 224.726562 146.695312 225.632812 145.789062 225.632812 144.671875 C 225.632812 143.550781 224.726562 142.644531 223.605469 142.644531 L 149.640625 142.644531 C 148.519531 142.644531 147.613281 143.550781 147.613281 144.671875 C 147.613281 145.789062 148.519531 146.695312 149.640625 146.695312 Z M 149.640625 146.695312 " fill-opacity="1" fill-rule="nonzero"/></g><g clip-path="url(#888ef02542)"><path fill="#cda01b" d="M 141.792969 156.832031 L 223.605469 156.832031 C 224.726562 156.832031 225.632812 155.925781 225.632812 154.804688 C 225.632812 153.683594 224.726562 152.777344 223.605469 152.777344 L 141.792969 152.777344 C 140.671875 152.777344 139.765625 153.683594 139.765625 154.804688 C 139.765625 155.925781 140.671875 156.832031 141.792969 156.832031 Z M 141.792969 156.832031 " fill-opacity="1" fill-rule="nonzero"/></g><g clip-path="url(#dc5fdb6de2)"><path fill="#cda01b" d="M 128.894531 166.988281 L 223.605469 166.988281 C 224.726562 166.988281 225.632812 166.082031 225.632812 164.960938 C 225.632812 163.839844 224.726562 162.933594 223.605469 162.933594 L 128.894531 162.933594 C 127.773438 162.933594 126.867188 163.839844 126.867188 164.960938 C 126.867188 166.082031 127.773438 166.988281 128.894531 166.988281 Z M 128.894531 166.988281 " fill-opacity="1" fill-rule="nonzero"/></g><g clip-path="url(#ce01dd7ede)"><path fill="#cda01b" d="M 223.605469 173.070312 L 149.640625 173.070312 C 148.519531 173.070312 147.613281 173.976562 147.613281 175.097656 C 147.613281 176.21875 148.519531 177.125 149.640625 177.125 L 223.605469 177.125 C 224.726562 177.125 225.632812 176.21875 225.632812 175.097656 C 225.632812 173.976562 224.726562 173.070312 223.605469 173.070312 Z M 223.605469 173.070312 " fill-opacity="1" fill-rule="nonzero"/></g><g clip-path="url(#defa5648ae)"><path fill="#cda01b" d="M 223.605469 183.203125 L 160.917969 183.203125 C 159.796875 183.203125 158.890625 184.109375 158.890625 185.230469 C 158.890625 186.351562 159.796875 187.257812 160.917969 187.257812 L 223.605469 187.257812 C 224.726562 187.257812 225.632812 186.351562 225.632812 185.230469 C 225.632812 184.109375 224.726562 183.203125 223.605469 183.203125 Z M 223.605469 183.203125 " fill-opacity="1" fill-rule="nonzero"/></g><g clip-path="url(#a1504ac52b)"><path fill="#cda01b" d="M 225.632812 195.363281 C 225.632812 194.242188 224.726562 193.335938 223.605469 193.335938 L 141.792969 193.335938 C 140.671875 193.335938 139.765625 194.242188 139.765625 195.363281 C 139.765625 196.484375 140.671875 197.390625 141.792969 197.390625 L 223.605469 197.390625 C 224.726562 197.390625 225.632812 196.484375 225.632812 195.363281 Z M 225.632812 195.363281 " fill-opacity="1" fill-rule="nonzero"/></g><g fill="#0097b2" fill-opacity="1"><g transform="translate(64.083295, 237.554881)"><g><path d="M 22.65625 -27.328125 L 7.027344 -27.328125 C 5.1875 -27.265625 4.414062 -26.234375 4.414062 -25.203125 C 4.414062 -24.234375 5.125 -23.300781 6.285156 -23.300781 L 11.28125 -23.300781 L 4.222656 -2.996094 C 4.09375 -2.675781 4.0625 -2.351562 4.0625 -2.09375 C 4.0625 -0.742188 5.253906 0 6.476562 0 C 7.574219 0 8.667969 -0.582031 9.089844 -1.804688 L 16.597656 -23.300781 L 21.851562 -23.300781 C 23.65625 -23.300781 24.429688 -24.394531 24.429688 -25.425781 C 24.429688 -26.394531 23.75 -27.328125 22.65625 -27.328125 Z M 22.65625 -27.328125 "/></g></g></g><g fill="#0097b2" fill-opacity="1"><g transform="translate(84.869714, 237.554881)"><g><path d="M 22.65625 -9.25 C 21.171875 -5.1875 19.433594 -4.09375 18.113281 -4.09375 C 17.53125 -4.09375 17.175781 -4.382812 17.175781 -4.800781 C 17.175781 -5.027344 17.242188 -5.253906 17.339844 -5.542969 L 18.917969 -9.539062 C 19.273438 -10.410156 19.433594 -11.214844 19.433594 -11.957031 C 19.433594 -13.308594 18.949219 -14.339844 18.175781 -15.148438 C 20.175781 -16.53125 21.496094 -19.789062 21.496094 -22.074219 C 21.496094 -25.460938 18.5625 -27.359375 15.535156 -27.523438 C 15.371094 -27.523438 15.148438 -27.554688 14.855469 -27.554688 C 14.050781 -27.554688 12.828125 -27.425781 11.699219 -26.621094 C 11.539062 -27.359375 10.601562 -27.972656 9.570312 -27.972656 C 8.574219 -27.972656 7.445312 -27.457031 6.929688 -26.007812 L -1.191406 -2.964844 C -1.289062 -2.644531 -1.355469 -2.351562 -1.355469 -2.09375 C -1.355469 -0.773438 -0.160156 0 1.128906 0 C 2.222656 0 3.351562 -0.582031 3.804688 -1.835938 L 8.121094 -14.019531 C 8.1875 -13.277344 8.605469 -11.925781 10.507812 -11.925781 C 11.023438 -11.925781 11.667969 -12.054688 12.472656 -12.3125 C 13.277344 -12.277344 13.761719 -11.761719 13.761719 -11.023438 C 13.761719 -10.636719 13.695312 -10.25 13.535156 -9.828125 L 12.34375 -6.800781 C 12.054688 -6.027344 11.890625 -5.253906 11.890625 -4.578125 C 11.890625 -1.773438 14.148438 0 17.339844 0 C 20.851562 0 24.558594 -2.160156 26.621094 -8.539062 C 26.683594 -8.796875 26.75 -9.054688 26.75 -9.28125 C 26.75 -10.410156 25.8125 -11.152344 24.847656 -11.152344 C 23.976562 -11.152344 23.074219 -10.601562 22.65625 -9.25 Z M 8.894531 -16.242188 L 10.441406 -20.65625 C 11.214844 -22.109375 12.664062 -23.140625 14.082031 -23.140625 C 15.308594 -23.140625 16.144531 -22.367188 16.144531 -21.207031 C 16.144531 -19.917969 15.40625 -18.015625 14.246094 -17.371094 C 13.566406 -17.628906 12.890625 -17.757812 12.214844 -17.757812 C 10.894531 -17.757812 9.667969 -17.273438 8.894531 -16.242188 Z M 8.894531 -16.242188 "/></g></g></g><g fill="#0097b2" fill-opacity="1"><g transform="translate(108.008672, 237.554881)"><g><path d="M 19.5625 -10.3125 C 18.078125 -6.058594 13.664062 -4.0625 9.796875 -4.0625 C 6.832031 -4.0625 5.222656 -5.640625 5.222656 -7.832031 C 5.222656 -10.699219 6.960938 -12.3125 10.121094 -12.3125 C 11.214844 -11.667969 12.148438 -11.375 12.957031 -11.375 C 14.890625 -11.375 15.953125 -12.957031 15.953125 -14.46875 C 15.953125 -15.792969 15.148438 -17.082031 13.34375 -17.144531 C 11.410156 -17.144531 10.410156 -18.464844 10.410156 -19.980469 C 10.410156 -22.074219 11.601562 -23.65625 13.730469 -23.65625 C 14.726562 -23.65625 15.695312 -22.945312 15.921875 -22.171875 C 16.371094 -20.5625 17.273438 -19.820312 18.402344 -19.820312 C 19.53125 -19.820312 20.625 -20.59375 20.722656 -22.011719 C 20.914062 -25.425781 17.855469 -27.972656 13.824219 -27.972656 C 9.21875 -27.972656 5.222656 -24.300781 5.222656 -19.851562 C 5.222656 -18.5 5.671875 -17.304688 6.476562 -16.339844 C 1.675781 -15.4375 -0.0664062 -10.988281 -0.0664062 -7.574219 C -0.0664062 -3.222656 3.804688 0 9.699219 0 C 15.726562 0 21.59375 -3.449219 23.460938 -9.570312 C 23.558594 -9.828125 23.589844 -10.085938 23.589844 -10.3125 C 23.589844 -11.441406 22.6875 -12.054688 21.722656 -12.054688 C 20.820312 -12.054688 19.882812 -11.503906 19.5625 -10.3125 Z M 19.5625 -10.3125 "/></g></g></g><g fill="#0097b2" fill-opacity="1"><g transform="translate(127.634937, 237.554881)"><g><path d="M 22.976562 -10.699219 C 22.140625 -10.699219 21.300781 -10.28125 20.980469 -9.347656 C 19.851562 -6.15625 18.273438 -4.0625 16.628906 -4.0625 C 15.855469 -4.0625 15.40625 -4.640625 15.40625 -5.382812 C 15.40625 -5.671875 15.4375 -5.996094 15.566406 -6.316406 L 20.464844 -20.207031 C 20.753906 -20.980469 20.914062 -21.753906 20.914062 -22.625 C 20.914062 -25.878906 18.144531 -27.972656 14.824219 -27.972656 C 13.824219 -27.972656 12.3125 -27.683594 11.054688 -26.523438 C 10.925781 -27.457031 9.828125 -27.972656 8.765625 -27.972656 C 7.832031 -27.972656 6.960938 -27.585938 6.640625 -26.683594 L -1.742188 -3.125 C -1.871094 -2.804688 -1.902344 -2.480469 -1.902344 -2.222656 C -1.902344 -0.871094 -0.710938 0 0.582031 0 C 1.742188 0 2.835938 -0.710938 3.417969 -2.351562 L 9.957031 -20.820312 C 10.636719 -22.71875 12.34375 -23.71875 13.792969 -23.71875 C 14.824219 -23.71875 15.628906 -23.105469 15.628906 -22.042969 C 15.628906 -21.722656 15.597656 -21.367188 15.4375 -20.914062 L 10.894531 -8.089844 C 10.539062 -7.089844 10.378906 -6.089844 10.378906 -5.1875 C 10.378906 -1.964844 12.535156 0 15.695312 0 C 19.273438 0 22.816406 -2.546875 24.847656 -8.507812 C 24.910156 -8.734375 24.945312 -8.925781 24.945312 -9.121094 C 24.945312 -10.121094 23.976562 -10.699219 22.976562 -10.699219 Z M 22.976562 -10.699219 "/></g></g></g><g fill="#0097b2" fill-opacity="1"><g transform="translate(149.033658, 237.554881)"><g><path d="M 21.785156 -9.507812 C 21.140625 -7.507812 19.691406 -6.1875 17.984375 -6.1875 C 17.757812 -6.1875 17.53125 -6.21875 17.304688 -6.253906 L 21.785156 -19.496094 C 22.011719 -20.175781 22.171875 -21.011719 22.171875 -21.65625 C 22.171875 -25.75 18.660156 -27.972656 15.277344 -27.972656 C 14.117188 -27.972656 13.085938 -27.585938 12.019531 -26.84375 C 11.890625 -27.394531 10.765625 -28.039062 9.570312 -28.039062 C 8.507812 -28.039062 7.414062 -27.523438 6.898438 -26.007812 L -1.160156 -2.996094 C -1.320312 -2.578125 -1.386719 -2.222656 -1.386719 -1.871094 C -1.386719 -0.289062 0 0.710938 1.417969 0.710938 C 2.449219 0.710938 3.511719 0.160156 4.0625 -1.03125 C 5.285156 0.128906 7.285156 0.417969 8.152344 0.417969 C 10.601562 0.417969 13.246094 -0.546875 15.148438 -2.578125 C 15.886719 -2.289062 16.695312 -2.128906 17.660156 -2.128906 C 21.464844 -2.128906 24.621094 -4.738281 25.652344 -8.667969 C 25.71875 -8.863281 25.71875 -9.054688 25.71875 -9.25 C 25.71875 -10.378906 24.78125 -10.957031 23.816406 -10.957031 C 22.945312 -10.957031 22.074219 -10.507812 21.785156 -9.507812 Z M 6.960938 -10.765625 L 10.121094 -19.753906 C 11.214844 -22.558594 12.859375 -23.300781 14.339844 -23.300781 C 15.628906 -23.300781 16.660156 -22.398438 16.660156 -20.980469 C 16.660156 -20.59375 16.566406 -20.175781 16.4375 -19.722656 L 12.921875 -9.347656 C 11.730469 -10.214844 10.34375 -10.894531 8.347656 -10.894531 C 7.863281 -10.894531 7.378906 -10.859375 6.960938 -10.765625 Z M 7.992188 -3.640625 C 6.800781 -3.640625 6.125 -4.222656 6.125 -4.964844 C 6.125 -5.996094 7.1875 -6.832031 8.507812 -6.832031 C 9.636719 -6.832031 10.539062 -6.21875 11.375 -5.445312 C 10.472656 -4.253906 9.121094 -3.640625 7.992188 -3.640625 Z M 7.992188 -3.640625 "/></g></g></g><g fill="#0097b2" fill-opacity="1"><g transform="translate(171.205824, 237.554881)"><g/></g></g><g fill="#0097b2" fill-opacity="1"><g transform="translate(185.031304, 237.554881)"><g><path d="M 15.984375 -27.972656 C 12.792969 -27.972656 9.570312 -26.167969 8.507812 -22.914062 C 8.316406 -22.269531 8.1875 -21.65625 8.1875 -21.042969 C 8.1875 -18.242188 10.121094 -16.113281 11.957031 -13.859375 C 13.472656 -12.019531 14.890625 -10.507812 14.890625 -8.574219 C 14.890625 -5.960938 12.601562 -4.382812 10.507812 -4.382812 C 8.1875 -4.414062 6.347656 -5.769531 6.382812 -8.058594 C 6.414062 -8.21875 6.414062 -8.378906 6.414062 -8.507812 C 6.414062 -10.34375 5.1875 -11.183594 3.933594 -11.183594 C 2.644531 -11.183594 1.320312 -10.25 1.320312 -8.445312 C 1.160156 -3.320312 5.671875 0 10.539062 0 C 15.695312 0 20.367188 -4.0625 20.367188 -9.023438 C 20.367188 -12.375 18.144531 -14.953125 16.179688 -17.144531 L 15.792969 -17.5625 C 14.566406 -18.886719 13.601562 -20.335938 13.601562 -21.527344 C 13.601562 -22.945312 15.242188 -23.558594 15.984375 -23.527344 C 16.984375 -23.460938 17.691406 -22.753906 18.242188 -21.65625 C 18.660156 -20.65625 19.496094 -20.207031 20.367188 -20.207031 C 21.527344 -20.207031 22.6875 -21.078125 22.6875 -22.558594 C 22.6875 -22.882812 22.65625 -23.171875 22.558594 -23.527344 C 21.816406 -26.039062 19.273438 -27.972656 15.984375 -27.972656 Z M 15.984375 -27.972656 "/></g></g></g><g fill="#0097b2" fill-opacity="1"><g transform="translate(208.4603, 237.554881)"><g><path d="M 19.5625 -10.3125 C 18.078125 -6.058594 13.664062 -4.0625 9.796875 -4.0625 C 6.832031 -4.0625 5.222656 -5.640625 5.222656 -7.832031 C 5.222656 -10.699219 6.960938 -12.3125 10.121094 -12.3125 C 11.214844 -11.667969 12.148438 -11.375 12.957031 -11.375 C 14.890625 -11.375 15.953125 -12.957031 15.953125 -14.46875 C 15.953125 -15.792969 15.148438 -17.082031 13.34375 -17.144531 C 11.410156 -17.144531 10.410156 -18.464844 10.410156 -19.980469 C 10.410156 -22.074219 11.601562 -23.65625 13.730469 -23.65625 C 14.726562 -23.65625 15.695312 -22.945312 15.921875 -22.171875 C 16.371094 -20.5625 17.273438 -19.820312 18.402344 -19.820312 C 19.53125 -19.820312 20.625 -20.59375 20.722656 -22.011719 C 20.914062 -25.425781 17.855469 -27.972656 13.824219 -27.972656 C 9.21875 -27.972656 5.222656 -24.300781 5.222656 -19.851562 C 5.222656 -18.5 5.671875 -17.304688 6.476562 -16.339844 C 1.675781 -15.4375 -0.0664062 -10.988281 -0.0664062 -7.574219 C -0.0664062 -3.222656 3.804688 0 9.699219 0 C 15.726562 0 21.59375 -3.449219 23.460938 -9.570312 C 23.558594 -9.828125 23.589844 -10.085938 23.589844 -10.3125 C 23.589844 -11.441406 22.6875 -12.054688 21.722656 -12.054688 C 20.820312 -12.054688 19.882812 -11.503906 19.5625 -10.3125 Z M 19.5625 -10.3125 "/></g></g></g><g fill="#0097b2" fill-opacity="1"><g transform="translate(228.086561, 237.554881)"><g><path d="M 22.65625 -27.328125 L 7.027344 -27.328125 C 5.1875 -27.265625 4.414062 -26.234375 4.414062 -25.203125 C 4.414062 -24.234375 5.125 -23.300781 6.285156 -23.300781 L 11.28125 -23.300781 L 4.222656 -2.996094 C 4.09375 -2.675781 4.0625 -2.351562 4.0625 -2.09375 C 4.0625 -0.742188 5.253906 0 6.476562 0 C 7.574219 0 8.667969 -0.582031 9.089844 -1.804688 L 16.597656 -23.300781 L 21.851562 -23.300781 C 23.65625 -23.300781 24.429688 -24.394531 24.429688 -25.425781 C 24.429688 -26.394531 23.75 -27.328125 22.65625 -27.328125 Z M 22.65625 -27.328125 "/></g></g></g><g fill="#0097b2" fill-opacity="1"><g transform="translate(248.872978, 237.554881)"><g><path d="M 22.65625 -27.328125 L 7.027344 -27.328125 C 5.1875 -27.265625 4.414062 -26.234375 4.414062 -25.203125 C 4.414062 -24.234375 5.125 -23.300781 6.285156 -23.300781 L 11.28125 -23.300781 L 4.222656 -2.996094 C 4.09375 -2.675781 4.0625 -2.351562 4.0625 -2.09375 C 4.0625 -0.742188 5.253906 0 6.476562 0 C 7.574219 0 8.667969 -0.582031 9.089844 -1.804688 L 16.597656 -23.300781 L 21.851562 -23.300781 C 23.65625 -23.300781 24.429688 -24.394531 24.429688 -25.425781 C 24.429688 -26.394531 23.75 -27.328125 22.65625 -27.328125 Z M 22.65625 -27.328125 "/></g></g></g><g fill="#0097b2" fill-opacity="1"><g transform="translate(269.659407, 237.554881)"><g><path d="M 19.5625 -10.3125 C 18.078125 -6.058594 13.664062 -4.0625 9.796875 -4.0625 C 6.832031 -4.0625 5.222656 -5.640625 5.222656 -7.832031 C 5.222656 -10.699219 6.960938 -12.3125 10.121094 -12.3125 C 11.214844 -11.667969 12.148438 -11.375 12.957031 -11.375 C 14.890625 -11.375 15.953125 -12.957031 15.953125 -14.46875 C 15.953125 -15.792969 15.148438 -17.082031 13.34375 -17.144531 C 11.410156 -17.144531 10.410156 -18.464844 10.410156 -19.980469 C 10.410156 -22.074219 11.601562 -23.65625 13.730469 -23.65625 C 14.726562 -23.65625 15.695312 -22.945312 15.921875 -22.171875 C 16.371094 -20.5625 17.273438 -19.820312 18.402344 -19.820312 C 19.53125 -19.820312 20.625 -20.59375 20.722656 -22.011719 C 20.914062 -25.425781 17.855469 -27.972656 13.824219 -27.972656 C 9.21875 -27.972656 5.222656 -24.300781 5.222656 -19.851562 C 5.222656 -18.5 5.671875 -17.304688 6.476562 -16.339844 C 1.675781 -15.4375 -0.0664062 -10.988281 -0.0664062 -7.574219 C -0.0664062 -3.222656 3.804688 0 9.699219 0 C 15.726562 0 21.59375 -3.449219 23.460938 -9.570312 C 23.558594 -9.828125 23.589844 -10.085938 23.589844 -10.3125 C 23.589844 -11.441406 22.6875 -12.054688 21.722656 -12.054688 C 20.820312 -12.054688 19.882812 -11.503906 19.5625 -10.3125 Z M 19.5625 -10.3125 "/></g></g></g><g fill="#0097b2" fill-opacity="1"><g transform="translate(289.285679, 237.554881)"><g><path d="M 22.65625 -9.25 C 21.171875 -5.1875 19.433594 -4.09375 18.113281 -4.09375 C 17.53125 -4.09375 17.175781 -4.382812 17.175781 -4.800781 C 17.175781 -5.027344 17.242188 -5.253906 17.339844 -5.542969 L 18.917969 -9.539062 C 19.273438 -10.410156 19.433594 -11.214844 19.433594 -11.957031 C 19.433594 -13.308594 18.949219 -14.339844 18.175781 -15.148438 C 20.175781 -16.53125 21.496094 -19.789062 21.496094 -22.074219 C 21.496094 -25.460938 18.5625 -27.359375 15.535156 -27.523438 C 15.371094 -27.523438 15.148438 -27.554688 14.855469 -27.554688 C 14.050781 -27.554688 12.828125 -27.425781 11.699219 -26.621094 C 11.539062 -27.359375 10.601562 -27.972656 9.570312 -27.972656 C 8.574219 -27.972656 7.445312 -27.457031 6.929688 -26.007812 L -1.191406 -2.964844 C -1.289062 -2.644531 -1.355469 -2.351562 -1.355469 -2.09375 C -1.355469 -0.773438 -0.160156 0 1.128906 0 C 2.222656 0 3.351562 -0.582031 3.804688 -1.835938 L 8.121094 -14.019531 C 8.1875 -13.277344 8.605469 -11.925781 10.507812 -11.925781 C 11.023438 -11.925781 11.667969 -12.054688 12.472656 -12.3125 C 13.277344 -12.277344 13.761719 -11.761719 13.761719 -11.023438 C 13.761719 -10.636719 13.695312 -10.25 13.535156 -9.828125 L 12.34375 -6.800781 C 12.054688 -6.027344 11.890625 -5.253906 11.890625 -4.578125 C 11.890625 -1.773438 14.148438 0 17.339844 0 C 20.851562 0 24.558594 -2.160156 26.621094 -8.539062 C 26.683594 -8.796875 26.75 -9.054688 26.75 -9.28125 C 26.75 -10.410156 25.8125 -11.152344 24.847656 -11.152344 C 23.976562 -11.152344 23.074219 -10.601562 22.65625 -9.25 Z M 8.894531 -16.242188 L 10.441406 -20.65625 C 11.214844 -22.109375 12.664062 -23.140625 14.082031 -23.140625 C 15.308594 -23.140625 16.144531 -22.367188 16.144531 -21.207031 C 16.144531 -19.917969 15.40625 -18.015625 14.246094 -17.371094 C 13.566406 -17.628906 12.890625 -17.757812 12.214844 -17.757812 C 10.894531 -17.757812 9.667969 -17.273438 8.894531 -16.242188 Z M 8.894531 -16.242188 "/></g></g></g></svg>